<?xml version="1.0" encoding="UTF-8"?>
<svg version="1.1" xmlns="http://www.w3.org/2000/svg" width="319" height="248">
<path d="M0 0 C105.27 0 210.54 0 319 0 C319 81.84 319 163.68 319 248 C213.73 248 108.46 248 0 248 C0 166.16 0 84.32 0 0 Z " fill="#F4F3EF" transform="translate(0,0)"/>
<path d="M0 0 C2.50010874 2.17446433 4.07496836 3.69031444 4.48828125 7.078125 C4.66845566 12.65404883 4.02158562 15.7418059 0.25 20.125 C-2.5 22.5 -2.5 22.5 -4.75 24.125 C-3.4751791 26.96883123 -2.29862922 29.26254018 0.25 31.125 C3.25350106 31.02811287 4.27015684 30.10652289 6.5 28.0625 C7.0775 27.423125 7.655 26.78375 8.25 26.125 C12.125 28 12.125 28 13.25 29.125 C13.58 18.565 13.91 8.005 14.25 -2.875 C25.14 -2.875 36.03 -2.875 47.25 -2.875 C47.25 1.085 47.25 5.045 47.25 9.125 C40.98 9.125 34.71 9.125 28.25 9.125 C28.25 12.425 28.25 15.725 28.25 19.125 C33.86 19.125 39.47 19.125 45.25 19.125 C46.24 21.6 46.24 21.6 47.25 24.125 C47.765625 23.50625 48.28125 22.8875 48.8125 22.25 C53.23123058 18.39777334 58.55147746 17.73303955 64.25 17.85546875 C67.58967684 18.30554239 70.24785613 19.62392807 73.25 21.125 C73.25 20.465 73.25 19.805 73.25 19.125 C76.88 19.125 80.51 19.125 84.25 19.125 C84.25 30.345 84.25 41.565 84.25 53.125 C80.95 53.125 77.65 53.125 74.25 53.125 C74.25 52.135 74.25 51.145 74.25 50.125 C73.280625 50.785 72.31125 51.445 71.3125 52.125 C65.77101063 55.2819697 60.67161433 54.45335449 54.5625 53.625 C49.9843522 51.55187647 47.76928256 48.394254 45.25 44.125 C43.87979003 40.01437009 44.18723363 36.45587938 44.25 32.125 C38.97 32.125 33.69 32.125 28.25 32.125 C28.25 39.385 28.25 46.645 28.25 54.125 C24.51962153 54.2600499 20.79413588 54.35915132 17.0625 54.4375 C15.47985352 54.5003418 15.47985352 54.5003418 13.86523438 54.56445312 C6.16600315 54.6858921 6.16600315 54.6858921 3.39599609 52.98974609 C2.01171875 51.60546875 2.01171875 51.60546875 0.25 49.125 C-2.08326602 49.99997476 -4.32904739 50.87547606 -6.4765625 52.1484375 C-12.80286812 55.81925681 -19.10763962 56.35604125 -26.1953125 54.4765625 C-31.21594101 52.65905899 -31.21594101 52.65905899 -32.75 51.125 C-33.20375 51.599375 -33.6575 52.07375 -34.125 52.5625 C-37.09375715 55.41707418 -39.65892736 55.39922729 -43.7109375 55.34765625 C-46.65518496 55.02615796 -48.4783113 53.98365439 -50.75 52.125 C-51.08 51.135 -51.41 50.145 -51.75 49.125 C-52.41 49.125 -53.07 49.125 -53.75 49.125 C-54.69137255 46.30088235 -54.86725382 44.59581968 -54.84765625 41.67578125 C-54.84282227 40.40444336 -54.84282227 40.40444336 -54.83789062 39.10742188 C-54.82532227 37.78581055 -54.82532227 37.78581055 -54.8125 36.4375 C-54.80798828 35.54482422 -54.80347656 34.65214844 -54.79882812 33.73242188 C-54.78705004 31.52991927 -54.76911481 29.32745115 -54.75 27.125 C-60.36 26.795 -65.97 26.465 -71.75 26.125 C-71.255 28.105 -71.255 28.105 -70.75 30.125 C-68.60974795 31.34285659 -68.60974795 31.34285659 -66 32.125 C-58.38677285 34.96087258 -58.38677285 34.96087258 -55.75 38.125 C-55.17249413 42.67285873 -55.22616554 44.98208845 -57.125 49.125 C-57.66125 49.785 -58.1975 50.445 -58.75 51.125 C-59.41 51.125 -60.07 51.125 -60.75 51.125 C-61.08 52.115 -61.41 53.105 -61.75 54.125 C-69.90391869 55.95006483 -77.29380411 56.10163781 -84.75 52.125 C-84.75 52.785 -84.75 53.445 -84.75 54.125 C-89.04 54.125 -93.33 54.125 -97.75 54.125 C-97.75 53.465 -97.75 52.805 -97.75 52.125 C-98.905 52.62 -100.06 53.115 -101.25 53.625 C-105.72633779 55.27792332 -108.9862965 55.66283749 -113.75 55.125 C-117.17440103 53.25127113 -120.26187247 51.16604475 -122.75 48.125 C-122.75 47.465 -122.75 46.805 -122.75 46.125 C-123.41 46.125 -124.07 46.125 -124.75 46.125 C-126.38356321 41.22431037 -125.80529694 36.26761524 -125.75 31.125 C-131.69 31.125 -137.63 31.125 -143.75 31.125 C-143.75 38.385 -143.75 45.645 -143.75 53.125 C-147.71 53.125 -151.67 53.125 -155.75 53.125 C-155.75 34.975 -155.75 16.825 -155.75 -1.875 C-145.19 -1.875 -134.63 -1.875 -123.75 -1.875 C-123.75 1.425 -123.75 4.725 -123.75 8.125 C-130.02 8.455 -136.29 8.785 -142.75 9.125 C-143.08 12.755 -143.41 16.385 -143.75 20.125 C-137.81 20.125 -131.87 20.125 -125.75 20.125 C-125.75 22.765 -125.75 25.405 -125.75 28.125 C-122.99200902 26.74600451 -122.31147404 24.74827638 -120.75 22.125 C-118.94104648 19.71306197 -118.02544506 19.19546269 -115.0625 18.4375 C-107.18719043 17.69454627 -103.34557894 17.72794737 -96.75 22.125 C-96.75 21.135 -96.75 20.145 -96.75 19.125 C-93.12 19.125 -89.49 19.125 -85.75 19.125 C-85.75 28.695 -85.75 38.265 -85.75 48.125 C-85.09 48.125 -84.43 48.125 -83.75 48.125 C-83.42 46.475 -83.09 44.825 -82.75 43.125 C-79.75 42.125 -79.75 42.125 -77.9375 43 C-77.215625 43.37125 -76.49375 43.7425 -75.75 44.125 C-73.75889599 44.50790462 -71.75899487 44.85104615 -69.75 45.125 C-69.75 43.805 -69.75 42.485 -69.75 41.125 C-70.471875 41.021875 -71.19375 40.91875 -71.9375 40.8125 C-76.87443659 39.60569328 -80.06309565 37.42556929 -82.75 33.125 C-83.55402751 28.60506157 -83.61131362 24.48322532 -81.125 20.5625 C-75.81988234 17.35150773 -69.3843215 18.00020241 -63.375 18.0625 C-62.54355469 18.06701172 -61.71210937 18.07152344 -60.85546875 18.07617188 C-58.82028103 18.08786836 -56.78513077 18.10580065 -54.75 18.125 C-54.75 13.835 -54.75 9.545 -54.75 5.125 C-50.79 5.125 -46.83 5.125 -42.75 5.125 C-42.75 9.745 -42.75 14.365 -42.75 19.125 C-40.44 19.125 -38.13 19.125 -35.75 19.125 C-35.75 21.765 -35.75 24.405 -35.75 27.125 C-38.06 27.125 -40.37 27.125 -42.75 27.125 C-42.69012211 29.58598116 -42.60321526 32.04078412 -42.5 34.5 C-42.48582031 35.19867188 -42.47164063 35.89734375 -42.45703125 36.6171875 C-42.38964218 38.90217646 -42.38964218 38.90217646 -41.75 42.125 C-39.83611659 43.68983494 -39.83611659 43.68983494 -37.75 44.125 C-37.79640625 43.46113281 -37.8428125 42.79726562 -37.890625 42.11328125 C-38.18673861 34.86907319 -38.18673861 34.86907319 -36.0625 31.25 C-35.299375 30.54875 -34.53625 29.8475 -33.75 29.125 C-32.925 28.361875 -32.1 27.59875 -31.25 26.8125 C-28.75 25.125 -28.75 25.125 -24.75 25.125 C-25.08 23.475 -25.41 21.825 -25.75 20.125 C-26.41 20.125 -27.07 20.125 -27.75 20.125 C-30.88229318 15.42656024 -30.55757793 10.61511313 -29.75 5.125 C-28.26696687 2.10268076 -26.59926278 -0.06343169 -23.75 -1.875 C-15.94927836 -3.67349971 -6.73134304 -4.99383031 0 0 Z " fill="#0B0B0B" transform="translate(175.75,97.875)"/>
<path d="M0 0 C3.96 0 7.92 0 12 0 C12 8.58 12 17.16 12 26 C15.96 24.515 15.96 24.515 20 23 C24.68486131 22.19996984 28.05824559 22.52023832 32.3125 24.6875 C36.41861464 28.22066841 39.80506684 31.5074121 40.23828125 37.046875 C40.48307411 49.26075023 40.48307411 49.26075023 36 54 C35.46375 54.61875 34.9275 55.2375 34.375 55.875 C33 57 33 57 31 57 C31 57.66 31 58.32 31 59 C26.19721695 60.33652107 20.74394239 61.27976132 16.08203125 59.10546875 C14.4375 58 14.4375 58 12 56 C12 56.99 12 57.98 12 59 C8.04 59 4.08 59 0 59 C0 39.53 0 20.06 0 0 Z " fill="#0A0A09" transform="translate(263,93)"/>
<path d="M0 0 C0.99 0.495 1.98 0.99 3 1.5 C3 0.84 3 0.18 3 -0.5 C6.63 -0.5 10.26 -0.5 14 -0.5 C14 10.72 14 21.94 14 33.5 C10.7 33.5 7.4 33.5 4 33.5 C4 32.51 4 31.52 4 30.5 C3.030625 31.16 2.06125 31.82 1.0625 32.5 C-4.47898937 35.6569697 -9.57838567 34.82835449 -15.6875 34 C-20.4727106 31.83311218 -22.98344486 29.38517584 -25 24.5 C-25.75614589 19.40141628 -26.02012452 14.58922458 -25 9.5 C-22.62109375 6.71484375 -22.62109375 6.71484375 -20 4.5 C-18.700625 3.13875 -18.700625 3.13875 -17.375 1.75 C-12.51027871 -2.85868333 -5.87513142 -2.53156069 0 0 Z " fill="#060606" transform="translate(246,117.5)"/>
<path d="M0 0 C10.56 0 21.12 0 32 0 C32 3.3 32 6.6 32 10 C25.73 10.33 19.46 10.66 13 11 C12.67 14.63 12.34 18.26 12 22 C17.94 22 23.88 22 30 22 C30 24.97 30 27.94 30 31 C27.95761908 33.04238092 23.76319246 32.41508455 20.9375 32.5625 C17.0084375 32.7790625 17.0084375 32.7790625 13 33 C12.67 40.26 12.34 47.52 12 55 C8.04 55 4.08 55 0 55 C0 36.85 0 18.7 0 0 Z " fill="#030203" transform="translate(20,96)"/>
<path d="M0 0 C3.38576158 0.69726575 4.84565041 1.68102376 6.97265625 4.40625 C7.66545047 7.5522172 7.69861225 10.26440764 6.97265625 13.40625 C4.27247675 16.19081011 1.65503478 16.61925931 -2.08984375 16.90625 C-6.02734375 16.40625 -6.02734375 16.40625 -8.52734375 14.28125 C-10.29473679 10.89374667 -10.65508945 9.1727242 -10.02734375 5.40625 C-7.59925454 0.75241235 -5.29836235 -0.39613924 0 0 Z " fill="#DCDBD8" transform="translate(284.02734375,125.59375)"/>
<path d="M0 0 C2.1328125 0.47265625 2.1328125 0.47265625 4.7578125 2.41015625 C6.63176412 6.58395758 6.35412807 10.09484198 5.1328125 14.47265625 C2.65204386 16.95342489 1.69063041 16.82357182 -1.7421875 16.91015625 C-5.48184054 16.82909441 -6.50043171 16.76955379 -9.4921875 14.34765625 C-11.10806108 10.96901149 -11.48341945 9.17004793 -10.8671875 5.47265625 C-8.29620039 0.33068202 -5.4097473 -0.34815205 0 0 Z " fill="#DDDCD8" transform="translate(72.8671875,125.52734375)"/>
<path d="M0 0 C4.22187244 0.66661144 5.87219326 1.21999768 8.5625 4.5625 C9.26063698 7.70695436 9.28826048 10.42150383 8.5625 13.5625 C5.82814299 16.38230567 3.22513128 16.76239951 -0.5625 17 C-4.4375 16.5625 -4.4375 16.5625 -6.4375 15 C-7.83184583 11.60128205 -7.88501559 9.20655552 -7.4375 5.5625 C-5.36710468 1.6701568 -4.38665579 0.7178164 0 0 Z " fill="#E4E3DF" transform="translate(240.4375,125.4375)"/>
<path d="M0 0 C0.33 0 0.66 0 1 0 C1 19.47 1 38.94 1 59 C-13 59 -13 59 -17 57 C-16.34 56.34 -15.68 55.68 -15 55 C-14.01 55 -13.02 55 -12 55 C-12 55.99 -12 56.98 -12 58 C-8.7 58 -5.4 58 -2 58 C-2 46.78 -2 35.56 -2 24 C-5.63 24 -9.26 24 -13 24 C-13 23.67 -13 23.34 -13 23 C-9.04 23 -5.08 23 -1 23 C-0.67 15.41 -0.34 7.82 0 0 Z " fill="#A8A8A7" transform="translate(262,93)"/>
<path d="M0 0 C0.33 0 0.66 0 1 0 C1 3.96 1 7.92 1 12 C3.31 12 5.62 12 8 12 C8.66 14.31 9.32 16.62 10 19 C10.99 19 11.98 19 13 19 C11.83823843 21.85159659 10.85831438 23.11749539 8.4375 25.125 C5.01993482 29.15597431 5.1098614 32.85648907 5 38 C1.125 37.125 1.125 37.125 0 36 C-0.07313567 33.46950598 -0.09247527 30.96695163 -0.0625 28.4375 C-0.05798828 27.72658203 -0.05347656 27.01566406 -0.04882812 26.28320312 C-0.03700864 24.52209987 -0.01907263 22.76103964 0 21 C2.31 21 4.62 21 7 21 C7 18.36 7 15.72 7 13 C4.69 13 2.38 13 0 13 C0 8.71 0 4.42 0 0 Z " fill="#B7B7B4" transform="translate(133,104)"/>
<path d="M0 0 C0.33 0 0.66 0 1 0 C1.33 1.98 1.66 3.96 2 6 C2.33 6 2.66 6 3 6 C3.061875 7.216875 3.12375 8.43375 3.1875 9.6875 C3.61577768 13.00811873 4.01382028 14.01829155 6.125 16.8125 C9.3635993 19.27665164 12.20119808 20.58476007 16 22 C16 23.32 16 24.64 16 26 C11.53160785 26.21278058 8.17737474 25.59138085 4 24 C3.01 26.475 3.01 26.475 2 29 C1.34 29 0.68 29 0 29 C0 19.43 0 9.86 0 0 Z " fill="#EBECE9" transform="translate(90,117)"/>
<path d="M0 0 C1.33320679 -0.02777514 2.66659713 -0.04673341 4 -0.0625 C4.7425 -0.07410156 5.485 -0.08570312 6.25 -0.09765625 C9.84969573 0.03017385 13.42585009 0.55323126 17 1 C17 6.94 17 12.88 17 19 C16.67 19 16.34 19 16 19 C15.938125 17.39125 15.938125 17.39125 15.875 15.75 C15.35718854 11.8834501 15.35718854 11.8834501 12.5 9.8125 C8.40343975 7.69106701 4.25587356 5.7780094 0 4 C0 2.68 0 1.36 0 0 Z " fill="#BCBDBA" transform="translate(104,124)"/>
<path d="M0 0 C0.66 1.32 1.32 2.64 2 4 C2.61875 3.34 3.2375 2.68 3.875 2 C6 0 6 0 8 0 C6.59257936 3.51855159 5.33533477 4.38612834 2 6 C0.9458482 9.16245541 0.68724328 11.86948218 0.4375 15.1875 C0.35371094 16.27417969 0.26992187 17.36085937 0.18359375 18.48046875 C0.09271484 19.72763672 0.09271484 19.72763672 0 21 C-0.33 21 -0.66 21 -1 21 C-1 18.03 -1 15.06 -1 12 C-6.28 12 -11.56 12 -17 12 C-17 19.26 -17 26.52 -17 34 C-24.59 34 -32.18 34 -40 34 C-40 33.67 -40 33.34 -40 33 C-32.74 33 -25.48 33 -18 33 C-18 25.41 -18 17.82 -18 10 C-12.39 10 -6.78 10 -1 10 C-1.020625 8.535625 -1.04125 7.07125 -1.0625 5.5625 C-1.08392007 4.04167482 -1.07179964 2.51928038 -1 1 C-0.67 0.67 -0.34 0.34 0 0 Z " fill="#6F6E6C" transform="translate(221,118)"/>
<path d="M0 0 C2.28162434 0.91088103 3.5466189 1.93463586 5.265625 3.6796875 C5.78640625 4.19273437 6.3071875 4.70578125 6.84375 5.234375 C8.015625 6.8046875 8.015625 6.8046875 8.015625 9.8046875 C4.20354406 11.59860794 1.22847137 12.26260558 -2.984375 11.8046875 C-4.921875 10.7421875 -4.921875 10.7421875 -5.984375 8.8046875 C-5.859375 5.2421875 -5.859375 5.2421875 -4.984375 1.8046875 C-1.984375 -0.1953125 -1.984375 -0.1953125 0 0 Z " fill="#CBCBC8" transform="translate(157.984375,129.1953125)"/>
<path d="M0 0 C2.5625 0.25 2.5625 0.25 5.5625 2.25 C6.1261973 5.95429655 6.01753625 7.61619952 3.8125 10.6875 C1.5625 12.25 1.5625 12.25 -0.5625 12.125 C-2.4375 11.25 -2.4375 11.25 -4.4375 9.25 C-4.6875 5.75 -4.6875 5.75 -4.4375 2.25 C-2.4375 0.25 -2.4375 0.25 0 0 Z " fill="#DCDCD8" transform="translate(163.4375,102.75)"/>
<path d="M0 0 C3.96 0 7.92 0 12 0 C12 11.88 12 23.76 12 36 C0 36 0 36 -4 34 C-3.34 33.34 -2.68 32.68 -2 32 C-1.01 32 -0.02 32 1 32 C1 32.99 1 33.98 1 35 C4.3 35 7.6 35 11 35 C11 23.78 11 12.56 11 1 C7.37 1 3.74 1 0 1 C0 0.67 0 0.34 0 0 Z " fill="#585756" transform="translate(249,116)"/>
<path d="M0 0 C0.33 0 0.66 0 1 0 C1.33 1.98 1.66 3.96 2 6 C2.33 6 2.66 6 3 6 C3.1953125 7.98567708 3.390625 9.97135417 3.5859375 11.95703125 C3.92665391 14.29988142 3.92665391 14.29988142 6 17 C4.68 17 3.36 17 2 17 C2 20.96 2 24.92 2 29 C1.34 29 0.68 29 0 29 C0 19.43 0 9.86 0 0 Z " fill="#929190" transform="translate(90,117)"/>
<path d="M0 0 C4.25177923 0.47241991 6.29969203 2.84964071 9 6 C9 6.99 9 7.98 9 9 C6.36 9 3.72 9 1 9 C1 7 1 5 1 3 C0.34 3 -0.32 3 -1 3 C-0.67 2.01 -0.34 1.02 0 0 Z " fill="#E7E7E5" transform="translate(157,130)"/>
<path d="M0 0 C6.4 -0.36923077 6.4 -0.36923077 9.4375 1.5 C9.953125 1.995 10.46875 2.49 11 3 C10.67 3.99 10.34 4.98 10 6 C6.7 5.01 3.4 4.02 0 3 C0 2.01 0 1.02 0 0 Z " fill="#F1F1EE" transform="translate(105,125)"/>
<path d="M0 0 C0.33 0 0.66 0 1 0 C1.33 1.98 1.66 3.96 2 6 C2.99 6 3.98 6 5 6 C4.1875 7.9375 4.1875 7.9375 3 10 C-0.69418201 11.231394 -3.2056261 10.64432764 -7 10 C-7 9.67 -7 9.34 -7 9 C-4.69 9 -2.38 9 0 9 C0 6.03 0 3.06 0 0 Z " fill="#D5D4D2" transform="translate(141,117)"/>
<path d="M0 0 C0.66 1.32 1.32 2.64 2 4 C2.61875 3.34 3.2375 2.68 3.875 2 C6 0 6 0 8 0 C6.61122646 3.35620271 5.08322035 5.07298728 2 7 C1.34 7 0.68 7 0 7 C0 4.69 0 2.38 0 0 Z " fill="#595958" transform="translate(221,118)"/>
<path d="M0 0 C0 2.64 0 5.28 0 8 C-1.65 7.01 -3.3 6.02 -5 5 C-3.33333333 0 -3.33333333 0 0 0 Z " fill="#CBCBC9" transform="translate(190,135)"/>
<path d="M0 0 C0.99 0 1.98 0 3 0 C3 0.99 3 1.98 3 3 C6.63 3 10.26 3 14 3 C14 3.33 14 3.66 14 4 C12.08364783 4.05423638 10.16685075 4.09289963 8.25 4.125 C6.64898437 4.15980469 6.64898437 4.15980469 5.015625 4.1953125 C2.07529894 4.00487687 0.47638122 3.52670104 -2 2 C-1.34 1.34 -0.68 0.68 0 0 Z " fill="#6F6F6E" transform="translate(247,148)"/>
<path d="M0 0 C0.66 0.33 1.32 0.66 2 1 C0.71451591 2.33929505 -0.57858155 3.67128643 -1.875 5 C-2.59429687 5.7425 -3.31359375 6.485 -4.0546875 7.25 C-6 9 -6 9 -8 9 C-6.4169423 4.7257442 -3.49431596 2.73468206 0 0 Z " fill="#343432" transform="translate(147,123)"/>
<path d="M0 0 C1.07765625 0.01804687 2.1553125 0.03609375 3.265625 0.0546875 C4.49539062 0.08949219 4.49539062 0.08949219 5.75 0.125 C5.75 0.455 5.75 0.785 5.75 1.125 C2.12 1.125 -1.51 1.125 -5.25 1.125 C-5.25 2.115 -5.25 3.105 -5.25 4.125 C-7.725 3.135 -7.725 3.135 -10.25 2.125 C-6.7733662 -0.01836161 -4.03770805 -0.08777626 0 0 Z " fill="#8F8E8C" transform="translate(84.25,115.875)"/>
<path d="M0 0 C0.33 0.66 0.66 1.32 1 2 C1.66 2 2.32 2 3 2 C3.33 3.65 3.66 5.3 4 7 C3.01 7 2.02 7 1 7 C1 6.34 1 5.68 1 5 C0.34 5 -0.32 5 -1 5 C-0.67 3.35 -0.34 1.7 0 0 Z " fill="#C6C5C3" transform="translate(147,116)"/>
<path d="M0 0 C3.68754757 0.49831724 5.60490662 1.10067643 8 4 C6.68 4.33 5.36 4.66 4 5 C2.68 3.35 1.36 1.7 0 0 Z " fill="#D5D5D4" transform="translate(172,125)"/>
<path d="M0 0 C0 3 0 3 -2.5 5.6875 C-3.325 6.450625 -4.15 7.21375 -5 8 C-5.66 6.35 -6.32 4.7 -7 3 C-6.21625 2.87625 -5.4325 2.7525 -4.625 2.625 C-1.85942178 2.20882007 -1.85942178 2.20882007 0 0 Z " fill="#343432" transform="translate(168,111)"/>
<path d="M0 0 C0.66 0.33 1.32 0.66 2 1 C1.34 2.32 0.68 3.64 0 5 C-0.66 5 -1.32 5 -2 5 C-2.33 5.66 -2.66 6.32 -3 7 C-3.66 7 -4.32 7 -5 7 C-3.70700306 4.11562221 -2.34058637 2.12780579 0 0 Z " fill="#3D3C3A" transform="translate(152,96)"/>
</svg>
